<svg xmlns="http://www.w3.org/2000/svg" xmlns:xlink="http://www.w3.org/1999/xlink" width="804.906" height="612.823"><g><path fill="#e6e6e6" d="m338.914 0-.371 1.672 305.228.372c87.864 0 159.092 71.227 159.092 159.091v187.337h2.043V23.187C804.906 10.381 794.526 0 781.72 0H338.914Z"/><ellipse cx="675.091" cy="70.936" fill="#3f3d56" rx="8.642" ry="8.835"/><ellipse cx="645.238" cy="70.936" fill="#3f3d56" rx="8.642" ry="8.835"/><ellipse cx="615.384" cy="70.936" fill="#3f3d56" rx="8.642" ry="8.835"/><g fill="#e6e6e6"><path d="M544.666 204.554H423.801c-4.146 0-7.52-3.374-7.52-7.52s3.374-7.52 7.52-7.52h120.865c4.147 0 7.52 3.373 7.52 7.52s-3.373 7.52-7.52 7.52ZM638.99 230.006H423.8c-4.146 0-7.52-3.374-7.52-7.52s3.374-7.52 7.52-7.52H638.99c4.146 0 7.52 3.374 7.52 7.52s-3.374 7.52-7.52 7.52Z"/></g><path fill="#3f3d56" d="M679.71 269.542H383.08c-6.403 0-11.614-5.21-11.614-11.614v-96.336c0-6.404 5.21-11.614 11.615-11.614h296.63c6.404 0 11.614 5.21 11.614 11.614v96.336c0 6.404-5.21 11.614-11.614 11.614Zm-296.63-117.52c-5.277 0-9.57 4.293-9.57 9.57v96.336c0 5.277 4.293 9.57 9.57 9.57h296.63c5.278 0 9.571-4.293 9.571-9.57v-96.336c0-5.277-4.293-9.57-9.57-9.57H383.08Z"/><g><circle cx="685.343" cy="269.785" r="25.548" fill="#fae94d"/><path fill="#fff" d="M691.602 261.591c-2.044-2.465-5.456-3.92-8.626-2.993-2.903.848-5.32 3.598-5.049 6.735.126 1.456.72 2.854 1.74 3.911 1.152 1.194 2.62 1.606 4.23 1.742 1.72.145 3.194.401 4.339 1.817.995 1.232 1.306 2.865.736 4.355-1.355 3.54-6.149 3.951-8.153.769-.787-1.25-2.777-.097-1.985 1.16 1.634 2.595 4.956 4.024 7.942 3.054 2.904-.944 5.037-3.956 4.767-7.035-.28-3.199-2.827-5.834-5.99-6.268-1.667-.228-3.411-.045-4.539-1.537-.88-1.166-1.07-2.777-.404-4.083.813-1.595 2.58-2.597 4.35-2.6 2.01-.004 3.766 1.091 5.016 2.599.945 1.14 2.564-.494 1.626-1.626Z"/><path fill="#fff" d="m682.655 253.977-1.105 32.158c-.033.987 1.5.986 1.533 0l1.105-32.158c.034-.986-1.499-.985-1.533 0ZM686.23 253.977l-1.104 32.158c-.034.987 1.499.986 1.532 0l1.105-32.158c.034-.986-1.499-.985-1.533 0Z"/></g></g><g><g><path fill="#a0616a" d="M96.777 599.545h10.854l5.164-41.869-16.02.001.002 41.868z"/><path fill="#2f2e41" d="m96.395 610.869 33.379-.001v-.422c0-7.176-5.817-12.992-12.992-12.992h-.001l-6.097-4.626-11.376 4.626h-2.914v13.415Z"/></g><g><path fill="#a0616a" d="M163.112 599.545h10.854l5.164-41.869-16.02.001.002 41.868z"/><path fill="#2f2e41" d="m162.73 610.869 33.379-.001v-.422c0-7.176-5.817-12.992-12.992-12.992h-.001l-6.097-4.626-11.376 4.626h-2.914v13.415Z"/></g><path fill="#2f2e41" d="m87.188 333.194 99.265-2.76-.636 56.003-5.237 65.462s12.22 48.005 1.746 96.01l-.873 36.66-27.93-1.746s-4.8-72.009 1.309-99.066L136.502 386l-17.456 95.138s2.619 54.988-4.364 76.809v20.566H94.933S73.66 506.45 89.37 469.792l-2.182-136.598Z"/><path fill="#fae94d" d="M158.585 170.457s-2.679-6.721-4.679-9.72c-14 0-15.779.96-28 0l-33.923 182.13s-18.65 15.717 1.83 15.717 50.008-5.715 58.104-1.429 33.815-2.381 33.815-2.381l-27.147-184.317Z"/><path fill="#2f2e41" d="m126.465 160.375-12.559 13.361-8.294.11c-7.67.101-13.82 6.38-13.76 14.051l2.601 76.537s-23.503 72.812-7.786 75.67l-2.857 10.954 30.15 18.574s9.143-48.912 10.572-59.866 8.53-72.687 8.53-72.687-1.386-50.783-2.339-55.488l-4.258-21.216ZM154.299 160.932l-6.192 31.91 15.717 84.3s-3.81 78.108 8.097 85.728l18.764-4.857-1.429-15.24s1.715-3.716.763-18.004c-.953-14.288-6.566-40.335-6.566-40.335l8.314-94.926s-20.799-19.527-29.848-17.146l-7.62-11.43Z"/><g><path fill="#a0616a" d="m51.667 340.345 1.937-25.983 14.997-.964-3.025 27.398a8.721 8.721 0 1 1-15.412 7.751 8.708 8.708 0 0 1 1.503-8.202Z"/><path fill="#2f2e41" d="m109.417 174.158-7.9.13c-5.84.097-11.002 3.823-12.931 9.336l-29.607 84.572-3.073 15.77s-14.203 34.055-8.878 39.206l2.539 9.485 18.832-.312-.128-7.771s5.75-.54 5.723-7.386c0 0 14.904-25.67 10.96-33.703l10.153-19.698 14.31-89.63Z"/></g><g><path fill="#a0616a" d="m294.395 307.348-19.113-17.708-11.639 9.507 20.873 18.003a8.721 8.721 0 1 0 16.564-4.82 8.708 8.708 0 0 0-6.685-4.982Z"/><path fill="#2f2e41" d="m179.693 180.077-9.587 37.031 33.572 46.138 10.93 11.775s47.077 36.779 54.377 35.512l9.16 3.537 10.844-15.4-6.354-4.474s2.952-4.965-2.595-8.977c0 0-39.89-32.405-48.703-33.951l-9.933-19.81-30.35-42.28-11.361-9.101Z"/></g><path fill="#a0616a" d="M156.85 152.737a3.333 3.333 0 0 1-.384.262 24.15 24.15 0 0 1-3.181 1.792.175.175 0 0 1-.07.035 26.203 26.203 0 0 1-6.442 2.072c-2.334.428-4.65.542-6.906.358-11.616-.918-21.616-9.51-23.836-21.51a26.258 26.258 0 0 1 .455-11.635c2.56-9.51 10.366-17.184 20.698-19.099 14.326-2.648 28.084 6.818 30.733 21.144 1.958 10.594-2.71 20.882-11.066 26.581Z"/><path fill="#2f2e41" d="m125.907 152.093 1.592-7.35s-4.332-3.77 0-7.276l2.357-1.531h3.6l2.324-11.848 14.81-.987s14.809-2.962 16.783-7.899c0 0-4.936-.987-3.949-4.936 0 0-11.847-14.81-22.708-10.86-10.86 3.949-14.809 7.898-14.809 7.898s-17.771-2.962-17.771 18.759 17.771 26.03 17.771 26.03Z"/><g><path fill="#3f3d56" d="M288.231 341.713h-29.836a5.873 5.873 0 0 1-5.866-5.867v-57.01a5.873 5.873 0 0 1 5.866-5.867h29.836a5.873 5.873 0 0 1 5.866 5.867v57.01a5.873 5.873 0 0 1-5.866 5.867Z"/><path fill="#3f3d56" d="M294.097 293.94a.248.248 0 0 0-.248.248v7.941a.248.248 0 0 0 .497 0v-7.941a.248.248 0 0 0-.249-.248Z"/><path fill="#fae94d" d="M293.54 278.836v57.01a5.308 5.308 0 0 1-4.963 5.297h-.001c-.041.002-.082.005-.124.006a4.343 4.343 0 0 1-.221.005l-.772-.057c-.504-.038-1.237-.093-2.152-.167a393.876 393.876 0 0 1-2.86-.236c-.285-.023-.58-.049-.882-.075a485.515 485.515 0 0 1-6.018-.553c-.082-.01-.165-.017-.248-.025a371.568 371.568 0 0 1-3.971-.412l-.248-.026a259.359 259.359 0 0 1-6.79-.83c-1.666-.228-3.244-.468-4.661-.718a76.009 76.009 0 0 1-1.33-.247c-.083-.016-.166-.032-.248-.05-3-.6-4.964-1.248-4.964-1.913v-57.01a5.308 5.308 0 0 1 5.309-5.308h3.169c.506 0 .913.395.956.9.004.033.008.067.014.1.092.508.557.861 1.073.861h19.41c.516 0 .981-.353 1.073-.86.006-.034.01-.068.014-.101.043-.505.45-.9.957-.9h3.169a5.308 5.308 0 0 1 5.308 5.309Z"/><path fill="#3f3d56" d="M252.405 287.984a.248.248 0 0 0-.248.248v1.985a.248.248 0 0 0 .496 0v-1.985a.248.248 0 0 0-.248-.248ZM252.405 293.94a.248.248 0 0 0-.248.248v3.847a.248.248 0 0 0 .496 0v-3.847a.248.248 0 0 0-.248-.248ZM252.405 299.4a.248.248 0 0 0-.248.248v3.846a.248.248 0 0 0 .496 0v-3.846a.248.248 0 0 0-.248-.249Z"/><rect width="4.839" height=".62" x="256.686" y="274.396" fill="#3f3d56" rx=".31" ry=".31"/><circle cx="285.846" cy="274.52" r=".496" fill="#3f3d56"/><circle cx="287.211" cy="274.52" r=".496" fill="#3f3d56"/><circle cx="288.576" cy="274.52" r=".496" fill="#3f3d56"/></g><g><circle cx="273.973" cy="307.882" r="15.711" fill="#fff"/><path fill="#fae94d" d="M277.822 302.843c-1.257-1.516-3.355-2.41-5.304-1.84-1.786.522-3.272 2.212-3.105 4.141a3.95 3.95 0 0 0 1.07 2.406c.708.734 1.61.988 2.601 1.071 1.057.09 1.964.247 2.668 1.117.612.758.803 1.762.453 2.678-.834 2.177-3.782 2.43-5.014.473-.484-.768-1.708-.06-1.221.714 1.005 1.596 3.048 2.474 4.884 1.878 1.786-.58 3.098-2.433 2.932-4.327-.173-1.966-1.739-3.587-3.684-3.854-1.025-.14-2.098-.028-2.791-.945-.542-.717-.658-1.708-.249-2.511.5-.98 1.587-1.597 2.676-1.599 1.236-.002 2.315.671 3.084 1.598.581.701 1.577-.304 1-1Z"/><path fill="#fae94d" d="m272.32 298.161-.68 19.776c-.02.607.922.606.943 0l.68-19.776c.02-.607-.922-.606-.943 0ZM274.519 298.161l-.68 19.776c-.02.607.922.606.943 0l.68-19.776c.02-.607-.922-.606-.943 0Z"/></g></g><path fill="#f2f2f2" d="M54.259 595.49c-2.066.13-3.208-2.437-1.645-3.933l.156-.618a31.36 31.36 0 0 0-.062-.149c-2.09-4.981-9.17-4.947-11.241.042-1.84 4.428-4.18 8.864-4.756 13.546a18.029 18.029 0 0 0 .316 6.2c-4.308-9.41-6.575-19.686-6.575-30.02 0-2.597.142-5.193.433-7.783.239-2.119.568-4.224.995-6.31 2.305-11.278 7.298-22.019 14.5-30.99 3.462-1.893 6.349-4.85 8.093-8.397.626-1.279 1.117-2.654 1.35-4.056-.394.052-1.486-5.948-1.189-6.317-.549-.833-1.532-1.247-2.131-2.06-2.983-4.043-7.092-3.337-9.237 2.157-4.582 2.313-4.626 6.148-1.815 9.837 1.79 2.347 2.035 5.522 3.605 8.035-.162.207-.33.407-.491.614a73.591 73.591 0 0 0-7.681 12.168c.61-4.766-.291-10.508-1.827-14.21-1.748-4.217-5.025-7.769-7.91-11.414-3.466-4.38-10.574-2.469-11.184 3.083l-.018.161c.429.242.849.499 1.26.77 2.339 1.547 1.53 5.174-1.242 5.602l-.063.01c.155 1.543.42 3.074.808 4.579-3.702 14.316 4.29 19.53 15.701 19.764.252.13.497.258.75.381a73.187 73.187 0 0 0-2.765 9.979 73.856 73.856 0 0 0-1.279 9.049c-.297 3.83-.271 7.68.052 11.503l-.02-.136c-.82-4.21-3.106-8.144-6.426-10.87-4.946-4.063-11.933-5.559-17.268-8.824-2.569-1.572-5.86.46-5.412 3.437l.022.143c.795.322 1.57.697 2.319 1.117.428.242.848.499 1.258.77 2.34 1.547 1.531 5.174-1.24 5.602l-.063.01-.13.019a30.655 30.655 0 0 0 5.639 8.829c2.315 12.497 12.256 13.683 22.89 10.043h.007a75.092 75.092 0 0 0 5.044 14.727h18.02c.065-.2.123-.407.181-.608a20.475 20.475 0 0 1-4.986-.297c1.337-1.64 2.674-3.294 4.01-4.934a1.12 1.12 0 0 0 .085-.097c.678-.84 1.363-1.673 2.04-2.512l.001-.002a29.99 29.99 0 0 0-.879-7.64Z"/><path fill="#ccc" d="M255.81 611.633c0 .66-.53 1.19-1.19 1.19H1.33c-.66 0-1.19-.53-1.19-1.19 0-.66.53-1.19 1.19-1.19h253.29c.66 0 1.19.53 1.19 1.19Z"/></svg>